<?xml version="1.0" encoding="UTF-8" standalone="no"?>
<!DOCTYPE svg PUBLIC "-//W3C//DTD SVG 1.1//EN" "http://www.w3.org/Graphics/SVG/1.1/DTD/svg11.dtd">
<svg width="100%" height="100%" viewBox="0 0 75 125" version="1.1" xmlns="http://www.w3.org/2000/svg" xmlns:xlink="http://www.w3.org/1999/xlink" xml:space="preserve" xmlns:serif="http://www.serif.com/" style="fill-rule:evenodd;clip-rule:evenodd;stroke-linejoin:round;stroke-miterlimit:2;">
    <g transform="matrix(0.860655,0,0,1.01364,-21.3763,-351.492)">
        <path d="M107.906,381.742C106.926,382.91 105.773,384.109 104.414,385.32C93.273,395.242 68.57,407.105 68.57,407.105C68.211,406.894 66.336,405.855 64.184,404.433C59.086,401.214 54.797,398.074 51.246,395.062C39.348,385.562 25.699,371.824 27.852,360.062C27.008,361.523 26.379,363.089 26.008,364.73C22.992,375.535 30.332,392.359 55.859,411.605C58.219,417.472 62.824,429.91 61.109,433.718C58.844,438.765 45.254,433.492 45.254,433.492C45.254,433.492 56.832,445.417 64.129,444.042C66.25,443.644 67.816,441.671 68.977,438.835C74.91,457.96 70.422,468.121 70.422,468.121C81.824,457.343 76.996,424.312 75.555,415.945C98.289,401.546 103.121,391.742 107.906,381.742ZM69.543,401.831C72.258,401.831 74.457,398.808 74.457,395.066C74.457,391.335 72.258,388.3 69.543,388.3C66.832,388.3 64.637,391.335 64.637,395.066C64.637,398.8 66.836,401.831 69.543,401.831Z" style="fill:rgb(82,172,188);fill-rule:nonzero;"/>
    </g>
    <g transform="matrix(0.860655,0,0,1.01364,-21.3763,-442.929)">
        <path d="M111.148,456.964C110.941,454.581 110.152,452.191 108.727,449.859C107.406,447.71 105.641,445.859 103.621,444.351C99.273,441.113 93.82,439.523 88.422,439.523C79.789,439.523 72.27,443.519 68.41,449.398C64.543,443.519 57.031,439.523 48.398,439.523C43.844,439.523 39.02,440.39 35.441,443.363C32.398,445.882 31.762,449.296 32.141,453.152C32.555,457.355 34.508,461.269 36.926,464.667C36.688,462.828 36.812,461.136 37.273,459.624C38.738,453.671 45.594,449.156 53.824,449.156C60.211,449.156 65.77,451.87 68.629,455.863C71.488,451.87 77.051,449.156 83.438,449.156C92.742,449.156 100.289,454.91 100.289,462.003C100.289,462.542 100.242,463.078 100.156,463.597C99.621,467.874 97.543,473.07 92.387,478.867C92.637,478.714 101.633,475.995 106.992,469.296C110,465.535 111.52,461.269 111.148,456.964Z" style="fill:rgb(179,82,90);fill-rule:nonzero;"/>
    </g>
</svg>
